<svg width="82" height="82" viewBox="0 0 82 82" fill="none" xmlns="http://www.w3.org/2000/svg">
<path fill-rule="evenodd" clip-rule="evenodd" d="M41 0C63.6461 0 82 18.3539 82 41C82 63.6461 63.6461 82 41 82C18.3539 82 0 63.6461 0 41C0 18.3539 18.3539 0 41 0Z" fill="url(#paint0_radial_1_104)"/>
<path d="M26.0574 31.6629C34.3055 23.607 47.6945 23.607 55.9426 31.6629L56.9356 32.6398C57.352 33.0402 57.352 33.6969 56.9356 34.0973L53.5402 37.4125C53.332 37.6207 52.9957 37.6207 52.7875 37.4125L51.4262 36.0832C45.6606 30.4617 36.3395 30.4617 30.5738 36.0832L29.1164 37.5086C28.9082 37.7168 28.5719 37.7168 28.3637 37.5086L24.9684 34.1934C24.552 33.793 24.552 33.1363 24.9684 32.7359L26.0574 31.6629ZM62.9735 38.5176L66.0004 41.4645C66.4168 41.8648 66.4168 42.5215 66.0004 42.9219L52.3711 56.2309C51.9547 56.6313 51.282 56.6313 50.8817 56.2309L41.2082 46.7816C41.1121 46.6855 40.9359 46.6855 40.8399 46.7816L31.1664 56.2309C30.75 56.6313 30.0774 56.6313 29.677 56.2309L15.9996 42.9219C15.5832 42.5215 15.5832 41.8648 15.9996 41.4645L19.0266 38.5176C19.443 38.1172 20.1156 38.1172 20.516 38.5176L30.1895 47.9668C30.2856 48.0629 30.4617 48.0629 30.5578 47.9668L40.2313 38.5176C40.6477 38.1172 41.3203 38.1172 41.7207 38.5176L51.3942 47.9668C51.4902 48.0629 51.6664 48.0629 51.7625 47.9668L61.4359 38.5176C61.8844 38.1172 62.557 38.1172 62.9735 38.5176Z" fill="white"/>
<defs>
<radialGradient id="paint0_radial_1_104" cx="0" cy="0" r="1" gradientUnits="userSpaceOnUse" gradientTransform="translate(0.000254154 41.0013) scale(82)">
<stop stop-color="#5D9DF6"/>
<stop offset="1" stop-color="#006FFF"/>
</radialGradient>
</defs>
</svg>
