<svg id="Layer_1" data-name="Layer 1" xmlns="http://www.w3.org/2000/svg" xmlns:xlink="http://www.w3.org/1999/xlink" viewBox="0 0 200 200"><defs><style>.cls-1{fill-rule:evenodd;fill:url(#radial-gradient);}.cls-2{fill:#fff;}</style><radialGradient id="radial-gradient" cx="14.4" cy="232.59" r="0.39" gradientTransform="translate(-7154 -118773.89) scale(512)" gradientUnits="userSpaceOnUse"><stop offset="0" stop-color="#6c98cf"/><stop offset="1" stop-color="#436db5"/></radialGradient></defs><path class="cls-1" d="M316.88,210.44a100,100,0,1,1-100,100A100,100,0,0,1,316.88,210.44Z" transform="translate(-216.88 -210.44)"/><path class="cls-2" d="M280.43,287.66a52.45,52.45,0,0,1,72.89,0l2.42,2.39a2.44,2.44,0,0,1,0,3.55l-8.28,8.09a1.29,1.29,0,0,1-1.83,0l-3.32-3.24a36.57,36.57,0,0,0-50.86,0l-3.56,3.47a1.29,1.29,0,0,1-1.83,0l-8.29-8.08a2.47,2.47,0,0,1,0-3.56Zm90,16.72,7.38,7.19a2.44,2.44,0,0,1,0,3.55l-33.24,32.47a2.63,2.63,0,0,1-3.63,0h0l-23.6-23a.64.64,0,0,0-.89,0h0l-23.6,23a2.63,2.63,0,0,1-3.63,0h0L255.9,315.12a2.44,2.44,0,0,1,0-3.55l7.38-7.19a2.63,2.63,0,0,1,3.63,0l23.6,23.05a.67.67,0,0,0,.9,0h0L315,304.38a2.63,2.63,0,0,1,3.63,0h0l23.6,23.05a.67.67,0,0,0,.9,0l23.59-23.05a2.78,2.78,0,0,1,3.75,0Z" transform="translate(-216.88 -210.44)"/></svg>