<svg width="45" height="45" viewBox="0 0 45 45" fill="none" xmlns="http://www.w3.org/2000/svg">
<path fill-rule="evenodd" clip-rule="evenodd" d="M0 22.5C0 10.0736 10.0736 0 22.5 0C34.9263 0 45 10.0736 45 22.5C45 34.9263 34.9263 45 22.5 45C10.0736 45 0 34.9263 0 22.5ZM26.341 14.159C27.2196 15.0377 27.2196 16.4623 26.341 17.341L21.1819 22.5L26.341 27.659C27.2196 28.5377 27.2196 29.9623 26.341 30.841C25.4623 31.7196 24.0377 31.7196 23.159 30.841L16.9996 24.6816C15.7948 23.4767 15.7948 21.5233 16.9997 20.3184L23.159 14.159C24.0377 13.2803 25.4623 13.2803 26.341 14.159Z" fill="#C5C5C5"/>
</svg>
