<svg width="30" height="30" viewBox="0 0 30 30" fill="none" xmlns="http://www.w3.org/2000/svg">
<path fill-rule="evenodd" clip-rule="evenodd" d="M16.5 10.5C16.5 9.67158 15.8285 9 15 9C14.1715 9 13.5 9.67158 13.5 10.5V13.5H10.5C9.67158 13.5 9 14.1715 9 15C9 15.8285 9.67158 16.5 10.5 16.5H13.5V19.5C13.5 20.3284 14.1715 21 15 21C15.8285 21 16.5 20.3284 16.5 19.5V16.5H19.5C20.3284 16.5 21 15.8285 21 15C21 14.1715 20.3284 13.5 19.5 13.5H16.5V10.5ZM7.8751 0.58173C9.82317 0.1488 12.1865 0 15 0C17.8135 0 20.1768 0.1488 22.1249 0.58173C24.09 1.01846 25.7232 1.764 26.9796 3.02037C28.236 4.27674 28.9815 5.91003 29.4183 7.8751C29.8512 9.82317 30 12.1865 30 15C30 17.8135 29.8512 20.1768 29.4183 22.1249C28.9815 24.09 28.236 25.7232 26.9796 26.9796C25.7232 28.236 24.09 28.9815 22.1249 29.4183C20.1768 29.8512 17.8135 30 15 30C12.1865 30 9.82317 29.8512 7.8751 29.4183C5.91003 28.9815 4.27674 28.236 3.02037 26.9796C1.764 25.7232 1.01846 24.09 0.58173 22.1249C0.1488 20.1768 0 17.8135 0 15C0 12.1865 0.1488 9.82317 0.58173 7.8751C1.01846 5.91003 1.764 4.27674 3.02037 3.02037C4.27674 1.764 5.91003 1.01846 7.8751 0.58173Z" fill="#949494"/>
</svg>
