<svg width="30" height="30" viewBox="0 0 30 30" fill="none" xmlns="http://www.w3.org/2000/svg">
<path fill-rule="evenodd" clip-rule="evenodd" d="M11.7982 0.102117C14.6081 -0.53019 16.6469 1.88539 16.6469 4.27308V11.8398C16.6469 12.6757 17.3244 13.3532 18.1602 13.3532H25.7269C28.1146 13.3532 30.5302 15.392 29.8979 18.2018C28.3783 24.9547 22.3469 30.0001 15.1335 30.0001C6.7755 30.0001 0 23.2245 0 14.8666C0 7.65313 5.04531 1.62172 11.7982 0.102117Z" fill="#949494"/>
<path fill-rule="evenodd" clip-rule="evenodd" d="M28.9475 10.4461C28.1545 11.3257 26.9696 11.8398 25.7268 11.8398H22.7001C20.1928 11.8398 18.16 9.80713 18.16 7.29974V4.27304C18.16 3.03033 18.6741 1.84531 19.5538 1.0524C20.4638 0.232151 21.7748 -0.159035 23.1405 0.313781C26.203 1.37411 28.6258 3.79679 29.6862 6.85943C30.1589 8.22506 29.7677 9.53603 28.9475 10.4461Z" fill="#949494"/>
</svg>
