<svg width="30" height="31" viewBox="0 0 30 31" fill="none" xmlns="http://www.w3.org/2000/svg">
<path fill-rule="evenodd" clip-rule="evenodd" d="M5.99301 9.00821C5.99301 4.03311 10.0261 0 15.0012 0C19.9763 0 24.0094 4.03311 24.0094 9.00821C24.0094 13.9833 19.9763 18.0164 15.0012 18.0164C10.0261 18.0164 5.99301 13.9833 5.99301 9.00821Z" fill="#949494"/>
<path fill-rule="evenodd" clip-rule="evenodd" d="M5.13864 22.3742C7.57826 21.3514 10.8324 21.0192 15.0012 21.0192C19.1615 21.0192 22.4106 21.3501 24.8481 22.3675C27.4644 23.4596 29.0703 25.315 29.9263 28.0136C30.2443 29.0165 29.4921 30.0274 28.4523 30.0274H1.54083C0.505234 30.0274 -0.242493 29.021 0.07296 28.0237C0.926443 25.3252 2.52663 23.4691 5.13864 22.3742Z" fill="#949494"/>
</svg>
