<svg width="30" height="30" viewBox="0 0 30 30" fill="none" xmlns="http://www.w3.org/2000/svg">
<path fill-rule="evenodd" clip-rule="evenodd" d="M29.9997 12.6988C29.9932 15.9702 29.9994 19.2415 29.9994 22.5129C29.9995 23.858 29.9995 25.017 29.8454 25.9452C29.6801 26.9399 29.3075 27.8933 28.3519 28.6667C27.3964 29.4399 26.2182 29.7416 24.9892 29.8753C23.8423 30.0002 22.4102 30 20.7481 30H9.25181C7.58971 30 6.15757 30.0002 5.01078 29.8753C3.78174 29.7416 2.60361 29.4399 1.64804 28.6667C0.692459 27.8933 0.319824 26.9399 0.154589 25.9452C0.000398061 25.017 0.00048946 23.858 0.000583205 22.5129C0.000583205 19.2415 0.00682711 15.9702 0.000283704 12.6988C-0.00185367 11.6167 -0.0037616 10.6559 0.469464 9.77763C0.942709 8.89933 1.81396 8.24668 2.79523 7.51164C4.76876 6.03329 6.7367 4.54996 8.70728 3.06903C9.84358 2.215 10.827 1.47589 11.7164 0.963408C12.672 0.412701 13.7224 0 15 0C16.2775 0 17.3279 0.412701 18.2835 0.963408C19.173 1.47589 20.1564 2.215 21.2926 3.06903C23.25 4.54016 25.2311 6.03322 27.2048 7.51164C28.1859 8.2467 29.0572 8.89933 29.5304 9.77763C30.0037 10.6559 30.0018 11.6167 29.9997 12.6988ZM14.9994 20.8956C13.9639 20.8956 13.1245 21.575 13.1245 22.413V25.4478C13.1245 26.2859 12.285 26.9652 11.2495 26.9652C10.2141 26.9652 9.37462 26.2859 9.37462 25.4478V22.413C9.37462 19.8989 11.8929 17.8609 14.9994 17.8609C18.1059 17.8609 20.6242 19.8989 20.6242 22.413V25.4478C20.6242 26.2859 19.7847 26.9652 18.7492 26.9652C17.7137 26.9652 16.8743 26.2859 16.8743 25.4478V22.413C16.8743 21.575 16.0349 20.8956 14.9994 20.8956Z" fill="#949494"/>
</svg>
