<svg width="45" height="45" viewBox="0 0 45 45" fill="none" xmlns="http://www.w3.org/2000/svg">
<path fill-rule="evenodd" clip-rule="evenodd" d="M11.25 5.5061e-06H11.1019C9.1073 -0.000106994 7.38871 -0.000197042 6.01248 0.184843C4.53758 0.383135 3.12379 0.8303 1.97703 1.97703C0.8303 3.12379 0.383135 4.53758 0.184843 6.01248C-0.000197042 7.38871 -0.000106994 9.1073 5.5061e-06 11.1019V11.25V33.898C-0.000106994 35.8927 -0.000197042 37.6112 0.184843 38.9875C0.383135 40.4624 0.8303 41.8763 1.97703 43.0229C3.12379 44.1697 4.53758 44.6168 6.01248 44.8153C7.38873 45.0002 9.10733 45.0002 11.102 45H33.898C35.8927 45.0002 37.6112 45.0002 38.9875 44.8153C40.4624 44.6168 41.8763 44.1697 43.0229 43.0229C44.1697 41.8763 44.6168 40.4624 44.8153 38.9875C45.0002 37.6112 45.0002 35.8927 45 33.898V11.102C45.0002 9.10733 45.0002 7.38873 44.8153 6.01248C44.6168 4.53758 44.1697 3.12379 43.0229 1.97703C41.8763 0.8303 40.4624 0.383135 38.9875 0.184843C37.6112 -0.000197042 35.8927 -0.000106994 33.898 5.5061e-06H11.25ZM6.75 27C5.50737 27 4.5 28.0073 4.5 29.25C4.5 30.4927 5.50737 31.5 6.75 31.5H8.84167C9.59398 31.5 10.2965 31.876 10.7138 32.5019L12.542 35.2442C13.7939 37.1221 15.9014 38.25 18.1584 38.25H26.8416C29.0986 38.25 31.2061 37.1221 32.458 35.2442L34.2862 32.5019C34.7035 31.876 35.406 31.5 36.1584 31.5H38.25C39.4927 31.5 40.5 30.4927 40.5 29.25C40.5 28.0073 39.4927 27 38.25 27H36.1584C33.9014 27 31.7938 28.1279 30.5419 30.0058L28.7138 32.7481C28.2964 33.374 27.594 33.75 26.8416 33.75H18.1584C17.406 33.75 16.7035 33.374 16.2862 32.7481L14.458 30.0058C13.2061 28.1279 11.0986 27 8.84167 27H6.75Z" fill="#949494"/>
</svg>
